
      <svg
        width="488px"
        height="512px"
        viewBox="0 0 488 512"
        version="1.1"
        xmlns="http://www.w3.org/2000/svg"
      >
        <g
          id="Page-1"
          stroke="none"
          strokeWidth="1"
          fill="none"
          fillRule="evenodd"
        >
          <g id="006-piggy-bank-1" fillRule="nonzero">
            <g id="piggy" transform="translate(0.000000, 121.000000)">
              <rect
                id=""
                fill="#FF969F"
                x="419.327"
                y="173.812"
                width="68.604"
                height="32.946"
              />
              <g id="Group-3">
                <path
                  d="M40.992,139.133 C52.965,106.56 76.022,79.343 105.613,62.081 L105.613,0.286 C132.465,0.286 155.071,18.409 161.906,43.087 C167.914,42.346 174.031,41.959 180.24,41.959 L292.963,41.959 C374.881,41.959 441.29,108.367 441.29,190.286 C441.29,261.033 391.755,320.204 325.479,335.028 L325.479,390.998 L266.217,390.998 L266.217,338.613 L206.985,338.613 L206.985,391 L147.723,391 L147.723,335.011 C98.292,323.951 58.167,288.244 40.971,241.441 L0.068,241.441 L0.068,139.133 L40.992,139.133 Z"
                  id="Shape"
                  fill="#FF717D"
                />
                <path
                  d="M236.601,41.959 L180.239,41.959 C174.031,41.959 167.913,42.347 161.905,43.087 C155.071,18.41 132.466,0.286 105.612,0.286 L105.612,62.081 C76.022,79.342 52.964,106.56 40.991,139.133 L0.068,139.133 L0.068,241.44 L40.97,241.44 C58.167,288.244 98.291,323.951 147.722,335.01 L147.722,391 L206.984,391 L206.984,338.614 L236.6,338.614 L236.6,41.959 L236.601,41.959 Z"
                  id="Shape"
                  fill="#FF969F"
                />
                <g
                  id="Group"
                  transform="translate(88.000000, 65.000000)"
                  fill="#E21B4E"
                >
                  <circle id="Oval" cx="17.615" cy="74.133" r="17.189" />
                  <rect
                    id="Rectangle-path"
                    x="83.732"
                    y="0.932"
                    width="129.738"
                    height="31.115"
                  />
                </g>
                <rect
                  id="Rectangle-path"
                  fill="#FF717D"
                  x="171.732"
                  y="65.932"
                  width="64.864"
                  height="31.115"
                />
              </g>
            </g>
            <circle
            className="animatedPiggyCoin coinPath1"
              fill="#FBB500"
              r="60.642"
            />

            <circle
            className="animatedPiggyCoin coinPath2"
              fill="#FBB500"
              r="60.642"
            />
            
            <g>
            <path d="M183,340 C216.174591,156.500766 276.174591,56.5007657 363,40" id="Path3"></path>
            <path d="M0.159999847,340 C33.3345904,156.500766 93.3345904,56.5007657 180.16,40" id="Path-3" transform="translate(90.160000, 190.000000) scale(-1, 1) translate(-90.160000, -190.000000) "></path>
            <path d="M183,343.586177 C183,106.842717 183,-7.5570569 183,0.386855323" id="Path-4"></path>
            </g>
          </g>
        </g>
      </svg>