
<svg width="488px" height="315px" viewBox="0 0 488 315" version="1.1" xmlns="http://www.w3.org/2000/svg" xmlns:xlink="http://www.w3.org/1999/xlink">
    <desc>Created with Sketch.</desc>
    <defs>
        <rect id="path-1" x="0" y="0" width="488" height="315"></rect>
    </defs>
    <g id="Page-1" stroke="none" stroke-width="1" fill="none" fill-rule="evenodd">
        <g>
            <mask id="mask-2" fill="white">
                <use xlink:href="#path-1"></use>
            </mask>
            <use id="Mask" transform="translate(244.000000, 157.500000) scale(1, -1) translate(-244.000000, -157.500000) " xlink:href="#path-1"></use>
            <g mask="url(#mask-2)" id="Group-4">
                <g transform="translate(0.000000, -340.000000)">
                    <g transform="translate(0.000000, 264.000000)">
                        <rect id="Rectangle-path" fill="#FF969F" fill-rule="nonzero" x="419.327" y="173.812" width="68.604" height="32.946"></rect>
                        <g id="Group-3" fill-rule="nonzero">
                            <path d="M40.992,139.133 C52.965,106.56 76.022,79.343 105.613,62.081 L105.613,0.286 C132.465,0.286 155.071,18.409 161.906,43.087 C167.914,42.346 174.031,41.959 180.24,41.959 L292.963,41.959 C374.881,41.959 441.29,108.367 441.29,190.286 C441.29,261.033 391.755,320.204 325.479,335.028 L325.479,390.998 L266.217,390.998 L266.217,338.613 L206.985,338.613 L206.985,391 L147.723,391 L147.723,335.011 C98.292,323.951 58.167,288.244 40.971,241.441 L0.068,241.441 L0.068,139.133 L40.992,139.133 Z" id="Shape" fill="#FF717D"></path>
                            <path d="M236.601,41.959 L180.239,41.959 C174.031,41.959 167.913,42.347 161.905,43.087 C155.071,18.41 132.466,0.286 105.612,0.286 L105.612,62.081 C76.022,79.342 52.964,106.56 40.991,139.133 L0.068,139.133 L0.068,241.44 L40.97,241.44 C58.167,288.244 98.291,323.951 147.722,335.01 L147.722,391 L206.984,391 L206.984,338.614 L236.6,338.614 L236.6,41.959 L236.601,41.959 Z" id="Shape" fill="#FF969F"></path>
                            <g id="Group" transform="translate(88.000000, 65.000000)" fill="#E21B4E">
                                <circle id="Oval" cx="17.615" cy="74.133" r="17.189"></circle>
                                <rect id="Rectangle-path" x="83.732" y="0.932" width="129.738" height="31.115"></rect>
                            </g>
                            <rect id="Rectangle-path" fill="#FF717D" x="171.732" y="65.932" width="64.864" height="31.115"></rect>
                        </g>
                    </g>
                </g>
            </g>
        </g>
    </g>
</svg>